<svg id="Mac-Command--Streamline-Carbon" xmlns="http://www.w3.org/2000/svg" viewBox="0 0 16 16" height="16" width="16">
<title>mac-command</title>
<path d="M12 6.5a2 2 0 0 0 2 -2V4a2 2 0 0 0 -2 -2h-0.5a2 2 0 0 0 -2 2v1.5h-3V4a2 2 0 0 0 -2 -2H4a2 2 0 0 0 -2 2v0.5a2 2 0 0 0 2 2h1.5v3H4a2 2 0 0 0 -2 2v0.5a2 2 0 0 0 2 2h0.5a2 2 0 0 0 2 -2v-1.5h3v1.5a2 2 0 0 0 2 2h0.5a2 2 0 0 0 2 -2v-0.5a2 2 0 0 0 -2 -2h-1.5v-3Zm-1.5 -2.5a1 1 0 0 1 1 -1h0.5a1 1 0 0 1 1 1v0.5a1 1 0 0 1 -1 1h-1.5ZM4 5.5a1 1 0 0 1 -1 -1V4a1 1 0 0 1 1 -1h0.5a1 1 0 0 1 1 1v1.5H4Zm1.5 6.5a1 1 0 0 1 -1 1H4a1 1 0 0 1 -1 -1v-0.5a1 1 0 0 1 1 -1h1.5Zm4 -2.5h-3v-3h3Zm1 1h1.5a1 1 0 0 1 1 1v0.5a1 1 0 0 1 -1 1h-0.5a1 1 0 0 1 -1 -1Z" fill="#000000" stroke-width="0.5"></path>
<path id="_Transparent_Rectangle_" d="M0 0h16v16H0Z" fill="none" stroke-width="0.5"></path>
</svg>